ffmpeg version 0.8.6-6:0.8.6-1ubuntu2, Copyright (c) 2000-2013 the Libav developers
  built on Mar 30 2013 22:20:06 with gcc 4.7.2
*** THIS PROGRAM IS DEPRECATED ***
This program is only provided for compatibility and will be removed in a future release. Please use avconv instead.
Input #0, avi, from '../tmp/clityle.avi':
  Metadata:
    encoder         : Lavf53.21.1
  Duration: 00:00:07.63, start: 0.000000, bitrate: 1153 kb/s
    Stream #0.0: Video: mpeg4 (Simple Profile), yuv420p, 448x304 [PAR 1:1 DAR 28:19], 25 tbr, 25 tbn, 25 tbc
    Stream #0.1: Audio: mp3, 48000 Hz, stereo, s16, 192 kb/s
[mp3 @ 0x1e4e4e0] max_analyze_duration reached
Input #1, mp3, from '../tmp/clityle.mp3':
  Metadata:
    encoder         : Lavf53.21.1
  Duration: 00:00:06.21, start: 0.000000, bitrate: 217 kb/s
    Stream #1.0: Audio: mp3, 48000 Hz, stereo, s16, 192 kb/s
Output #0, avi, to '../tmp/clityle_merged.avi':
  Metadata:
    ISFT            : Lavf53.21.1
    Stream #0.0: Video: mpeg4, yuv420p, 448x304 [PAR 1:1 DAR 28:19], q=2-31, 25 tbn, 25 tbc
    Stream #0.1: Audio: libmp3lame, 48000 Hz, stereo, 192 kb/s
Stream mapping:
  Stream #0.0 -> #0.0
  Stream #1.0 -> #0.1
Press ctrl-c to stop encoding
frame=  184 fps=  0 q=-1.0 Lsize=    1072kB time=7.36 bitrate=1193.7kbits/s    
video:886kB audio:165kB global headers:0kB muxing overhead 2.052453%
